<svg xmlns="http://www.w3.org/2000/svg" width="210mm" height="297mm" viewBox="0 0 210 297"><g stroke-width=".265"><path d="M69.33 30.813l4.944-11.763 13.468-3.921-9.717 9.376 2.557 10.91-7.33 8.865z" fill="#694c3a" stroke="#694c3a" stroke-width=".3414896"/><path d="M74.274 19.05l9.036-8.694L116.552.468l12.786 1.705-7.671 3.92-19.094 1.535-14.831 7.501z" fill="#4d382a" stroke="#4d382a" stroke-width=".3414896"/><path d="M80.582 35.416l17.036 3.71 25.676-10.548-1.627-22.484-19.094 1.534-14.831 7.501-9.717 9.376z" fill="#4b372c" stroke="#4b372c" stroke-width=".3414896"/><path d="M97.618 39.125l45.746 6.329 15.912-6.51-11.572-8.86-10.548-2.591-13.862 1.085z" fill="#26170f" stroke="#26170f" stroke-width=".3414896"/><path d="M129.338 2.173l9.385 2.055-1.567 23.265-13.862 1.085-1.627-22.484z" fill="#685041" stroke="#685041" stroke-width=".3414896"/><path d="M138.723 4.228l-1.567 23.265 2.004.492 1.432-23.637-1.869-.12" fill="#77685a" stroke="#77685a" stroke-width=".3414896"/><path d="M140.592 4.348l19.95 10.91 4.761 9.04-6.027 14.646-11.572-8.86-8.544-2.1z" fill="#281610" stroke="#281610" stroke-width=".3414896"/><path d="M143.364 45.454l13.32 2.953 2.592-9.463-15.912 6.51" fill="#3b291e" stroke="#3b291e" stroke-width=".3414896"/><path d="M159.276 38.944l14.164 32.367 1.085 36.163 9.326-37.344-10.783-29.86-7.765-15.972z" fill="#1b0d0b" stroke="#1b0d0b" stroke-width=".3414896"/><path d="M159.276 38.944l14.164 32.367.81 26.995-10.815-22.053-6.75-27.846z" fill="#0b0507" stroke="#0b0507" stroke-width=".3414896"/><path d="M128.148 43.349l15.216 2.105 13.32 2.953 6.75 27.846 1.447 13.14-11.451-23.628z" fill="#513124" stroke="#513124" stroke-width=".3414896"/><path d="M97.618 39.125l-17.036-3.71-7.33 8.865 24.366-5.155" fill="#ba8c6f" stroke="#ba8c6f" stroke-width=".3414896"/><path d="M192.004 68.78l10.246 90.77-4.822 39.779-4.821-50.87-2.411-59.187z" fill="#3b231b" stroke="#3b231b" stroke-width=".3414896"/><path d="M164.881 89.392l-1.446-13.14 10.815 22.054.275 9.168-6.51 32.909z" fill="#291611" stroke="#291611" stroke-width=".3414896"/><path d="M183.85 70.13l6.393 20.31 4.023 75.524-11.785-45.23-1.319-39.838z" fill="#452a1e" stroke="#452a1e" stroke-width=".3414896"/><path d="M181.162 80.896l.882 26.635-14.028 32.852 6.509-32.91z" fill="#251411" stroke="#251411" stroke-width=".3414896"/><path d="M182.044 107.53l.437 13.204-8.077 36.043-.875-29.305 8.515-19.941" fill="#331f19" stroke="#331f19" stroke-width=".3414896"/><path d="M174.404 156.777l8.077-36.043 6.35 24.373-6.23 14.14-4.52-5.906-3.677 3.436" fill="#1e0b0b" stroke="#1e0b0b" stroke-width=".3414896"/><path d="M173.529 127.472l-5.513 12.91-.558-9.076-1.25 3.29-9.644 28.328 3.616 15.31 5.184-24.05 6.027 9.825 3.013-7.232z" fill="#180a0b" stroke="#180a0b" stroke-width=".3414896"/><path d="M188.832 145.107l5.434 20.857-1.78 9.738-9.885-16.454z" fill="#492e23" stroke="#492e23" stroke-width=".3414896"/><path d="M178.081 153.341l4.52 5.907 5.71 9.504-11.325 17.62-5.595-22.363 3.013-7.232z" fill="#3c281d" stroke="#3c281d" stroke-width=".3414896"/><path d="M188.31 168.752l-.67 23.501-2.527-18.526 3.198-4.975" fill="#2f1a15" stroke="#2f1a15" stroke-width=".3414896"/><path d="M165.364 154.185l6.027 9.824 2.996 11.974-8.908 10.048-5.299-7.797 5.184-24.05" fill="#24100f" stroke="#24100f" stroke-width=".3414896"/><path d="M176.986 186.372l8.127-12.645 2.528 18.526z" fill="#28110e" stroke="#28110e" stroke-width=".3414896"/><path d="M165.479 186.03l3.495 20.287 10.91 5.967-7.671-8.78-3.666-11.677-3.068-5.796" fill="#653522" stroke="#653522" stroke-width=".3414896"/><path d="M174.387 175.983l-8.908 10.048 3.068 5.796 3.666 11.678 7.671 8.78-6.222-13.895 3.324-12.018z" fill="#2f130e" stroke="#2f130e" stroke-width=".3414896"/><path d="M176.986 186.372l-3.324 12.018 6.222 13.894-2.898-25.912" fill="#442316" stroke="#442316" stroke-width=".3414896"/><path d="M176.986 186.372l10.655 5.881-9.676 2.875z" fill="#401e11" stroke="#401e11" stroke-width=".3414896"/><path d="M177.965 195.128l9.676-2.875 7.725 5.585-11.817 5.155-5.584-7.865" fill="#542d1a" stroke="#542d1a" stroke-width=".3414896"/><path d="M177.965 195.128l5.584 7.865 5.711 3.154-9.376 6.137-1.919-17.156" fill="#9b5a3e" stroke="#9b5a3e" stroke-width=".3414896"/><path d="M195.366 197.838l2.062 1.49-8.168 6.819-5.71-3.154z" fill="#a96d4a" stroke="#a96d4a" stroke-width=".3414896"/><path d="M197.428 199.329l10.925 12.273.37 14.008-48.955-.37 20.116-12.956" fill="#0a0509" stroke="#0a0509" stroke-width=".3414896"/><path d="M166.41 114.245l-4.426 20.047 4.156.504 1.318-3.49-1.052-17.114" fill="#693e2b" stroke="#693e2b" stroke-width=".3414896"/><path d="M161.984 134.292l-6.137 17.303.717 11.33 9.576-28.13-4.156-.503" fill="#080307" stroke="#080307" stroke-width=".3414896"/><path d="M156.564 162.924l5.25 39.132 5.99-2.532-2.325-13.493-5.299-7.797-3.616-15.31" fill="#4a2515" stroke="#4a2515" stroke-width=".3414896"/><path d="M155.847 151.595l-29.066 23.525-11.678 5.967-11.336-1.023s8.182 6.308 7.5 7.501c-.681 1.193-.596 10.57-.596 10.57l14.235 16.536 31.33-56.937z" fill="#8a482e" stroke="#8a482e" stroke-width=".3414896"/><path d="M156.235 157.734l.329 5.19-3.615 20.465-.085-11.849-6.158 3.513z" fill="#663922" stroke="#663922" stroke-width=".3414896"/><path d="M156.564 162.924l2.37 17.666-5.985 2.799 3.615-20.465" fill="#482516" stroke="#482516" stroke-width=".3414896"/><path d="M152.949 183.389s3.41 13.979 3.068 14.234c-.34.256 4.603 7.501 4.603 7.501l1.194-3.068-2.88-21.466-5.985 2.799" fill="#8c5134" stroke="#8c5134" stroke-width=".3414896"/><path d="M179.884 212.284l-10.91-5.967-1.17-6.793-5.99 2.532-1.194 3.068-4.361-6.82-15.755 24.294-4.262 2.898 23.526-.256 20.116-12.956" fill="#e9a784" stroke="#e9a784" stroke-width=".3414896"/><path d="M146.706 175.053l6.158-3.513.085 11.849 3.31 14.915-15.755 24.294-4.262 2.898-4.944-.17-6.392-10.655z" fill="#bc724e" stroke="#bc724e" stroke-width=".3414896"/><path d="M103.767 180.064l-6.137-1.023 13.04 19.094.398-11.36-7.301-6.71" fill="#ca7f5b" stroke="#ca7f5b" stroke-width=".3414896"/><path d="M97.63 179.041l-6.82-1.96 6.138 21.82 13.808 26.765 20.542-.34-6.392-10.655-14.235-16.536z" fill="#e6a078" stroke="#e6a078" stroke-width=".3414896"/><path d="M90.81 177.08l2.472 19.435-3.494 6.649-7.927 1.278-4.433 4.688 4.347 16.025 28.981.511-13.808-26.764-6.138-21.821" fill="#f3ba98" stroke="#f3ba98" stroke-width=".3414896"/><path d="M92.531 190.609l-11.636 14.854 8.893-2.3 3.494-6.648-.744-5.853" fill="#a76b48" stroke="#a76b48" stroke-width=".3414896"/><path d="M77.428 209.13V191.4l8.61-.084 5.781-6.306.719 5.652z" fill="#774933" stroke="#774933" stroke-width=".3414896"/><path d="M90.81 177.08l1.009 7.93-5.782 6.306s-3.75-12.275-4.262-13.724c-.511-1.449-.852-12.274-.852-12.274l5.54 8.183z" fill="#110507" stroke="#110507" stroke-width=".3414896"/><path d="M76.32 225.41l5.455-.255-4.347-16.025-9.035-23.27-1.96 4.433 9.29 21.991z" fill="#301912" stroke="#301912" stroke-width=".3414896"/><path d="M58.42 113.323c-.17 1.193 6.308 23.526 6.308 23.526l4.347 10.228-.682 38.783-1.96 4.433-9.121-33.073z" fill="#371e16" stroke="#371e16" stroke-width=".3414896"/><path d="M60.015 167.02l6.417 23.273-18.528 17.97 11.995-41.66" fill="#271110" stroke="#271110" stroke-width=".3414896"/><path d="M58.172 123.134l-2.139-15.522-6.819 31.282 2.643 16.025 5.82-12.182z" fill="#623c2a" stroke="#623c2a" stroke-width=".3414896"/><path d="M57.678 142.737l-.366 14.483s-6.052 16.707-6.649 17.133c-.596.427-6.563 5.967-7.586 6.82-1.023.852-.17-28.64-.17-28.64l6.307-13.639 2.643 16.025 5.82-12.182" fill="#572f1f" stroke="#572f1f" stroke-width=".3414896"/><path d="M57.312 157.22l2.703 9.8-12.111 41.243 3.776-36.088z" fill="#532e1e" stroke="#532e1e" stroke-width=".3414896"/><path d="M51.68 172.175l-8.667 9.01-15.07 17.18 15.188-1.809 6.978-9.366z" fill="#764632" stroke="#764632" stroke-width=".3414896"/><path d="M50.109 187.19l-2.205 21.073-4.23 3.936-2.953 13.409-14.948-.362 10.005-16.635 7.353-12.055 6.978-9.366" fill="#774831" stroke="#774831" stroke-width=".3414896"/><path d="M66.432 190.293l9.291 21.991.597 13.127-35.6.197 2.954-13.41 22.758-21.905" fill="#060409" stroke="#060409" stroke-width=".3414896"/><path d="M69.075 147.077l11.848 18.241.698 11.54 4.416 14.458-8.609.085v17.73l-9.035-23.27.682-38.784" fill="#1c0a0b" stroke="#1c0a0b" stroke-width=".3414896"/><path d="M188.31 168.752l4.176 6.95 1.567-8.571 3.375 32.198-9.787-7.076.67-23.501" fill="#301913" stroke="#301913" stroke-width=".3414896"/><path d="M160.542 15.257l4.761 9.041 7.765 15.973 10.783 29.86 6.345 19.14 1.808-20.492-12.631-33.363-12.53-15.087-6.301-5.072" fill="#452a1b" stroke="#452a1b" stroke-width=".3414896"/><path d="M43.131 196.556l-17.358 28.69-25.57.25 9.887-18.156 13.383-7.842 4.47-1.134z" fill="#eebfa1" stroke="#eebfa1" stroke-width=".3414896"/><path d="M56.886 79.228l-6.478.511-.17 8.524h2.045l4.603-9.035 16.382-.564 15.068 4.822 5.786 4.219-2.652 1.687-5.786-5.063-15.31-4.098-10.005 1.446-7.835 6.51 4.352-8.96" fill="#2a1915" stroke="#2a1915" stroke-width=".3414896"/><path d="M55.443 85.77l-.86 5.913 2.652 9.884 6.51 6.148-8.318-6.027-2.652-8.68-.492-4.745 3.931-3.134" fill="#2f1b15" stroke="#2f1b15" stroke-width=".3414896"/><path d="M55.427 101.688l3.334 4.432 3.58 2.387 6.563 2.472 9.59.043 1.491-1.279-12.402-.724-3.838-1.304z" fill="#613828" stroke="#613828" stroke-width=".3414896"/><path d="M94.122 87.705l.354 12.023-5.285 6.648-10.697 4.646 1.491-1.279 7.032-4.006s3.75-5.498 3.793-6.137c.043-.64.66-10.208.66-10.208l2.652-1.687" fill="#331a14" stroke="#331a14" stroke-width=".3414896"/><path d="M94.122 87.705l5.468 1.07 13.809-4.433-11.508 9.035-5.2-1.534-2.414 1.124z" fill="#1c110e" stroke="#1c110e" stroke-width=".3414896"/><path d="M113.399 84.342l14.064-.767 13.041 2.216-4.347 1.108-13.382-1.449L110.27 86.8l3.129-2.457" fill="#2e1b14" stroke="#2e1b14" stroke-width=".3414896"/><path d="M140.504 85.791l8.268 2.472 5.967 1.705-1.023 5.285s-8.268 2.557-8.609 2.301c-.341-.256-2.557-6.734-2.557-6.734l-6.393-3.92z" fill="#1e1211" stroke="#1e1211" stroke-width=".3414896"/><path d="M154.739 89.968l6.648-.426-2.642 4.858-5.029.853z" fill="#6b5341" stroke="#6b5341" stroke-width=".3414896"/><path d="M161.387 89.542l3.494-.15.293 4.76-6.429.248 2.642-4.858" fill="#0f0607" stroke="#0f0607" stroke-width=".3414896"/><path d="M105.412 90.613l.06 4.128s3.92 4.433 3.92 4.773c0 .341 1.45 8.354 1.45 8.354l-1.364 2.216-4.007-5.711-3.58-10.996 3.397-2.667" fill="#4b3022" stroke="#4b3022" stroke-width=".3414896"/><path d="M110.841 107.868l4.859 4.176 14.49 2.131s10.058-4.517 9.888-3.58c-.17.938-3.069 4.007-3.069 4.007s-5.455 1.193-6.137 1.449c-.682.255-8.012-.341-9.035-.341-1.023 0-6.478-1.535-6.478-1.535l-5.881-4.091 1.363-2.216" fill="#8c6f63" stroke="#8c6f63" stroke-width=".3414896"/><path d="M140.059 110.516s3.855-5.887 3.855-6.399c0-.511.846-7.242.846-7.242l2.966.133-3.045 10.007-2.984 4.433-4.688 3.154 3.071-4.024" fill="#1a0c04" stroke="#1a0c04" stroke-width=".3414896"/><path d="M128.148 43.349l25.282 22.416 11.451 23.627-10.142.576-7.836-2.264-2.222-10.437-21.224-5.37 4.691-28.548" fill="#ea9770" stroke="#ea9770" stroke-width=".3414896"/><path d="M69.33 30.813l-9.035 12.189-3.41 36.226 8.283-.285S69.245 49.82 69.5 49.395c.256-.427 3.75-5.115 3.75-5.115l-3.92-13.467" fill="#4f3426" stroke="#4f3426" stroke-width=".3414896"/><path d="M158.745 94.4l6.43-.247 1.234 20.092-4.425 20.047-6.137 17.303-16.16 13.08 20.373-33.936 3.495-21.819-4.81-14.52" fill="#603521" stroke="#603521" stroke-width=".3414896"/><path d="M158.745 94.4l-5.029.853-5.99 1.755-3.045 10.007L158.745 94.4" fill="#f1a97e" stroke="#f1a97e" stroke-width=".3414896"/><path d="M158.745 94.4l2.533 7.645-7.848 3.018-7.353 8.438-4.38-2.053 2.984-4.433z" fill="#b1623e" stroke="#b1623e" stroke-width=".3414896"/><path d="M146.903 87.704l-10.47-9.16h-10.126l-2.85-6.647 21.224 5.37z" fill="#fac0a3" stroke="#fac0a3" stroke-width=".3414896"/><path d="M146.903 87.704l-10.47-9.16h-10.126l1.156 5.031 13.041 2.216 6.4 1.913" fill="#8b523b" stroke="#8b523b" stroke-width=".3414896"/><path d="M126.307 78.543l-13.38 2.893.472 2.906 14.064-.767z" fill="#a96b53" stroke="#a96b53" stroke-width=".3414896"/><path d="M84.478 76.856l-10.715-.569-.495 2.377 15.068 4.822z" fill="#b57554" stroke="#b57554" stroke-width=".3414896"/><path d="M73.763 76.287l-4.901-.682-3.694 3.338 8.1-.28.495-2.376" fill="#e6a989" stroke="#e6a989" stroke-width=".3414896"/><path d="M80.151 42.82l-6.9 1.46-3.684 5.014-1.415 8.717 12.188-15.23" fill="#c58666" stroke="#c58666" stroke-width=".3414896"/><path d="M89.024 40.943l8.594-1.818 30.53 4.224-.843 5.131-38.208-7.552-8.757 1.853-12.188 15.23 21.169-17.13" fill="#d89373" stroke="#d89373" stroke-width=".3414896"/><path d="M78.896 49.317l2.453 9.369-12.487 16.92-3.694 3.337 2.984-20.932 10.994-8.897" fill="#fdccae" stroke="#fdccae" stroke-width=".3414896"/><path d="M89.32 40.88l-4.842 35.976-15.616-1.25 12.487-16.92-2.203-9.572 10.175-8.233 37.984 7.6-39.222.487 1.238-8.087" fill="#fcd2b9" stroke="#fcd2b9" stroke-width=".3414896"/><path d="M88.083 48.968l34.601-.43-10.97 26.885-9.636-2.786h-9.523l-8.077 4.219z" fill="#fdd0b5" stroke="#fdd0b5" stroke-width=".3414896"/><path d="M122.684 48.538l4.62-.058-3.847 23.417-11.744 3.526z" fill="#fbbb9d" stroke="#fbbb9d" stroke-width=".3414896"/><path d="M123.457 71.897l2.85 6.646-7.891 1.707-6.703-4.827 11.744-3.526" fill="#f9b69a" stroke="#f9b69a" stroke-width=".3414896"/><path d="M87.987 75.023l-3.509 1.833 3.858 6.63-.349-8.463" fill="#eda886" stroke="#eda886" stroke-width=".3414896"/><path d="M87.987 75.023l7.822 10.21-1.687 2.472-5.786-4.22-.349-8.462" fill="#d58664" stroke="#d58664" stroke-width=".3414896"/><path d="M87.987 75.023l11.258 5.449 9.226 5.452-8.881 2.85-5.468-1.07 1.687-2.47-7.822-10.211" fill="#e69475" stroke="#e69475" stroke-width=".3414896"/><path d="M87.987 75.023l4.568-2.386h9.523l9.635 2.786-12.468 5.049z" fill="#fdbda1" stroke="#fdbda1" stroke-width=".3414896"/><path d="M111.713 75.423l6.703 4.827-5.49 1.186-7.808 2.507-5.873-3.471 12.468-5.05" fill="#f0a384" stroke="#f0a384" stroke-width=".3414896"/><path d="M112.927 81.436l.472 2.906-4.928 1.582-3.353-1.981z" fill="#c7785e" stroke="#c7785e" stroke-width=".3414896"/><path d="M105.288 90.71l4.982-3.911 12.505-1.349-3.58 4.786s-5.907 0-6.389.603c-.482.602-1.687 3.134-1.687 3.134l-5.648.768z" fill="#c57d63" stroke="#c57d63" stroke-width=".3414896"/><path d="M122.775 85.45l8.766.95-4.51 3.354-7.836.482 3.58-4.786" fill="#eba77f" stroke="#eba77f" stroke-width=".3414896"/><path d="M131.54 86.4l4.617.5 6.393 3.92 2.21 6.055-9.894-4.951-7.836-2.17z" fill="#d78d68" stroke="#d78d68" stroke-width=".3414896"/><path d="M119.195 90.236l7.835-.482 7.836 2.17 8.347 4.176-3.05.772-11.379-4.347-9.589-2.289" fill="#8b4833" stroke="#8b4833" stroke-width=".3414896"/><path d="M112.74 90.928l6.455-.692-4.603 3.61-.895 2.003-2.578-1.876 1.525-2.904" fill="#b86f4a" stroke="#b86f4a" stroke-width=".3414896"/><path d="M113.697 95.85l5.242-1.45.469-2.344 2.588-1.151-2.8-.669-4.604 3.61-.895 2.003" fill="#401b14" stroke="#401b14" stroke-width=".3414896"/><path d="M121.996 90.905l5.329 1.272-.63 2.308h-4.517l-3.239-.085.469-2.344 2.588-1.151" fill="#35281c" stroke="#35281c" stroke-width=".3414896"/><path d="M127.325 92.177l4.288 1.429-4.917.88.629-2.31" fill="#57362d" stroke="#492e26" stroke-width=".3414896"/><path d="M131.613 93.606l-4.917.88h-4.246l-3.511-.086-5.242 1.45 23.895.04z" fill="#b7765b" stroke="#b7765b" stroke-width=".3414896"/><path d="M113.697 95.85l23.895.04 2.571.982-14.82 4.514-11.646-5.537" fill="#dc8e72" stroke="#dc8e72" stroke-width=".3414896"/><path d="M105.471 94.741l5.648-.768 2.578 1.876 11.646 5.537-17.53-3.935-2.342-2.71" fill="#bf7152" stroke="#bf7152" stroke-width=".3414896"/><path d="M143.213 96.1l1.547.775-1.009 7.658-3.692 5.983.412-5.513-4.219-3.797-7.06-.992 10.971-3.342 3.05-.772" fill="#f1a77a" stroke="#f1a77a" stroke-width=".3414896"/><path d="M107.814 97.45l1.579 2.072 1.448 8.346 4.859 4.176 14.49 2.131s9.911-3.536 9.89-3.597c-.021-.062.391-5.575.391-5.575l-4.219-3.797-7.06-.992-3.85 1.172z" fill="#fcc2a4" stroke="#fcc2a4" stroke-width=".3414896"/><path d="M60.37 81.677l5.474-.791-6.435 22.734-2.174-2.053-2.652-9.884.86-5.913z" fill="#3f251a" stroke="#3f251a" stroke-width=".3414896"/><path d="M84.394 83.984L73.63 84.992 62.404 93.04l3.44-12.153 4.53-.655 13.813 3.698" fill="#f3bf9e" stroke="#f3bf9e" stroke-width=".3414896"/><path d="M78.488 84.537l5.906-.553 2.036.999 5.04 4.41-.29 4.506s-1.137-4.4-1.265-4.57c-.127-.17-6.392-3.325-6.392-3.325l-4.858-1.483" fill="#cf9173" stroke="#cf9173" stroke-width=".3414896"/><path d="M72.764 85.613l.865-.62 5.036-.472 4.858 1.483 6.494 3.604 1.162 4.29-9.233-6.317-7.118-.511z" fill="#b0674e" stroke="#b0674e" stroke-width=".3414896"/><path d="M74.828 87.07l-8.097 4.688-4.327 1.28 10.36-7.425z" fill="#c47153" stroke="#c47153" stroke-width=".3414896"/><path d="M67.42 91.359l7.408-4.29 7.118.512 1.943 1.33-8.25-.776-7.875 3.025" fill="#7b4936" stroke="#7b4936" stroke-width=".3414896"/><path d="M67.764 91.16l7.533-.809.341-2.216-7.874 3.025" fill="#48251e" stroke="#48251e" stroke-width=".3414896"/><path d="M75.638 88.135l6.405.602-.14 2.51-6.606-.896.341-2.216" fill="#3a2421" stroke="#3a2421" stroke-width=".3414896"/><path d="M82.043 88.737l1.846.174 5.81 3.974-7.796-1.639.14-2.509" fill="#80584d" stroke="#80584d" stroke-width=".3414896"/><path d="M67.42 91.359l7.877-1.008 6.606.895 7.795 1.64 1.481 1.013-23.76-2.54" fill="#b77b61" stroke="#b77b61" stroke-width=".3414896"/><path d="M67.42 91.359l23.76 2.54-9.575 3.74s-8.865-1.108-9.973-1.62c-1.108-.51-4.212-4.66-4.212-4.66z" fill="#df9066" stroke="#df9066" stroke-width=".3414896"/><path d="M91.18 93.899l-.535 6.13-3.628 5.708-7.032 4.006-12.402-.724-3.838-1.304-4.336-4.095 2.995-10.581 5.016-1.68 4.336 4.71 9.849 1.57 9.574-3.74" fill="#fcc1a1" stroke="#fcc1a1" stroke-width=".3414896"/><path d="M94.277 92.967l2.415-1.124 4.028 1.189-6.332 3.717-.111-3.782" fill="#cf8565" stroke="#cf8565" stroke-width=".3414896"/><path d="M100.72 93.032l1.171.345 3.58 10.996-6.733-6.606-4.262 1.96-.088-2.978z" fill="#bd6f51" stroke="#bd6f51" stroke-width=".3414896"/><path d="M153.43 105.063l7.848-3.018 2.277 6.875-3.495 21.819z" fill="#a35e3f" stroke="#a35e3f" stroke-width=".3414896"/><path d="M153.43 105.063l6.63 25.676-8.748 14.572 2.118-40.248" fill="#af6543" stroke="#af6543" stroke-width=".3414896"/><path d="M151.312 145.31l-35.1 29.043-25.402 2.728 6.82 1.96 6.137 1.023 11.336 1.023 11.678-5.967 12.906-10.445 11.625-19.364" fill="#813f25" stroke="#813f25" stroke-width=".3414896"/><path d="M141.697 111.448l4.38 2.053-6.872 6.992-19.046-1.808-2.853-3.98s2.828.712 3.187.787c.358.074 10.543.505 10.543.505l5.973-1.395 4.688-3.154" fill="#d37453" stroke="#d37453" stroke-width=".3414896"/><path d="M120.16 118.685l19.045 1.808 14.225-15.43-1.658 31.493-11.765 5.607-3.253-4.036-5.37-.596z" fill="#e28f6a" stroke="#e28f6a" stroke-width=".3414896"/><path d="M136.754 138.127l3.253 4.036 11.765-5.607-.46 8.755-23.783 19.678z" fill="#ca7853" stroke="#ca7853" stroke-width=".3414896"/><path d="M131.384 137.53l5.37.597-9.225 26.862-11.318 9.364-6.973.75 17.97-35.953c.17-.34 4.176-1.62 4.176-1.62z" fill="#e18b62" stroke="#e18b62" stroke-width=".3414896"/><path d="M117.306 114.705l-1.947-.53-5.881-4.091 5.966 9.632-2.301 1.278 8.694 9.547 5.374 8.602 4.173-1.612z" fill="#c77257" stroke="#c77257" stroke-width=".3414896"/><path d="M113.143 120.994l-3.154 1.109-3.069-.938h-5.029s-3.41 2.13-3.75 2.13c-.341 0-2.642-.596-2.642-.596l-4.859-2.642h-3.324l12.785 9.205 10.996-2.557 4.362-3.167-2.316-2.544" fill="#9c5138" stroke="#9c5138" stroke-width=".3414896"/><path d="M90.81 177.08l-4.347-3.58-8.438-24.377 12.445 14.064 19.434 1.534 6.379-3.714-7.045 14.095z" fill="#fcc8ab" stroke="#fcc8ab" stroke-width=".3414896"/><path d="M105.471 104.373l.427 10.058 6.128-.234-6.555-9.824" fill="#d38668" stroke="#d38668" stroke-width=".3414896"/><path d="M105.898 114.431l-3.282 3.665 4.304 3.069 3.069.938 3.154-1.109 2.301-1.278-3.418-5.519z" fill="#fab490" stroke="#fab490" stroke-width=".3414896"/><path d="M98.738 97.767l-4.262 1.96-4.774 10.442 6.18 6.862 7.245-5.583 2.344-7.075-6.733-6.606" fill="#fcdfc9" stroke="#fcdfc9" stroke-width=".3414896"/><path d="M105.471 104.373l.427 10.058-3.282 3.665-6.734-1.065 7.245-5.583 2.344-7.075" fill="#f9b793" stroke="#f9b793" stroke-width=".3414896"/><path d="M106.92 121.165l-2.348-1.674-2.68 1.674h5.028" fill="#6e230f" stroke="#6e230f" stroke-width=".3414896"/><path d="M104.572 119.491l-1.956-1.395s-5.03 2.089-5.03 2.387c0 .298.732 2.758.732 2.758l6.254-3.75" fill="#ac573f" stroke="#ac573f" stroke-width=".3414896"/><path d="M95.882 117.03l6.734 1.066-5.01 2.347-6.966-.386z" fill="#ea9773" stroke="#ea9773" stroke-width=".3414896"/><path d="M97.607 120.443l.71 2.798-2.818-.542-4.859-2.642z" fill="#b66349" stroke="#b66349" stroke-width=".3414896"/><path d="M89.702 110.17l-5.071 2.173-1.62 3.92s1.194 2.856 1.833 2.77c.64-.084 4.049-.937 4.049-.937l1.747 1.96 5.242-3.025-6.18-6.862" fill="#fbcbb3" stroke="#fbcbb3" stroke-width=".3414896"/><path d="M93.905 100.976l-4.203 9.193-5.071 2.174 4.56-5.967 4.789-5.564" fill="#c28062" stroke="#c28062" stroke-width=".3414896"/><path d="M85.084 118.993l3.809-.897 1.747 1.96h-3.324l-2.243-1.061" fill="#954327" stroke="#954327" stroke-width=".3414896"/><path d="M85.073 118.995l-3.247 12.588 9.523-2.773 8.752.452-12.785-9.205-2.232-1.064" fill="#f8c0a6" stroke="#f8c0a6" stroke-width=".3414896"/><path d="M115.46 123.538l-4.363 3.167 3.276 6.807 8.27-1.68-7.184-8.294" fill="#e39776" stroke="#e39776" stroke-width=".3414896"/><path d="M111.097 126.705l-10.996 2.557 14.272 4.25z" fill="#eca788" stroke="#eca788" stroke-width=".3414896"/><path d="M114.373 133.512l8.27-1.68 4.568 7.311-2.846 5.693 1.37-5.72s-1.537-2.26-1.778-2.29c-.241-.03-9.584-3.314-9.584-3.314" fill="#b6694e" stroke="#b6694e" stroke-width=".3414896"/><path d="M124.365 144.836l-8.003 6.938-12.235 6.178-11.723-.844-2.592 2.05 20.092 5.563 6.379-3.714 8.082-16.171" fill="#c66d53" stroke="#c66d53" stroke-width=".3414896"/><path d="M125.098 141.774l-9.824 5.559s-12.7 3.41-12.445 3.836c.256.426 1.298 6.783 1.298 6.783l12.235-6.178 8.003-6.938z" fill="#fc9b94" stroke="#fc9b94" stroke-width=".3414896"/><path d="M104.127 157.952l-11.723-.844-4.662-2.615 3.154-5.967s2.472 2.216 3.068 2.216c.597 0 8.94.327 8.94.327z" fill="#f6807c" stroke="#f6807c" stroke-width=".3414896"/><path d="M90.896 148.526s-3.665-3.75-4.006-4.176c-.341-.427-5.03-7.501-5.03-7.501s1.194 9.035 1.45 9.546c.255.512 4.432 8.098 4.432 8.098l1.162-2.198z" fill="#f17a6f" stroke="#f17a6f" stroke-width=".3414896"/><path d="M85.27 133.524l.938 6.734s3.068 1.534 2.557 2.131c-.512.597-1.142 2.755-1.142 2.755l-5.762-8.295z" fill="#5a1e19" stroke="#5a1e19" stroke-width=".3414896"/><path d="M81.826 131.583l.035 5.266 3.409-3.325 6.803-1.338 5.545 2.832 6.75-1.205 19.916 3.321-9.91-3.622-14.273-4.25-8.752-.452z" fill="#c86155" stroke="#c86155" stroke-width=".3414896"/><path d="M85.27 133.524l6.803-1.338 5.545 2.832.65 5.624-2.173-3.41-2.259-.128-1.363 2.77-2.131-2.727-1.662 1.662-1.663-2.259-1.097 1.642-.65-4.668" fill="#ee9584" stroke="#ee9584" stroke-width=".3414896"/><path d="M97.618 135.018l.65 5.624 1.535-3.24 2.131-.596s1.321 1.15 1.833 1.492c.511.34 1.023 2.557 1.023 2.557l3.068-2.983 2.728 2.642 1.918-2.216-8.136-4.485-6.75 1.205" fill="#ee8779" stroke="#ee8779" stroke-width=".3414896"/><path d="M121.086 139.028l3.198-1.894 1.45 1.983-.636 2.657-4.148 2.347z" fill="#34100d" stroke="#34100d" stroke-width=".3414896"/><path d="M124.284 137.134l-19.916-3.321 8.136 4.485 3.58 2.088 2.344-1.279 1.022 1.151 1.636-1.23z" fill="#8e3d38" stroke="#8e3d38" stroke-width=".3414896"/><path d="M121.086 139.028l-.068 2.558-1.994-.22-.596-2.259 1.022 1.151 1.636-1.23" fill="#8c5147" stroke="#8c5147" stroke-width=".3414896"/><path d="M118.428 139.107l.596 2.26-.852 1.406-2.643-1.023-1.704 1.79-1.748-.213.98-1.96-.553-3.07 3.58 2.089 2.344-1.279" fill="#b3694b" stroke="#b3694b" stroke-width=".3414896"/><path d="M112.504 138.298l.554 3.068-.98 1.96-1.28-.468-1.448 1.065-4.134-.213-.426-2.855 3.068-2.983 2.728 2.642z" fill="#f1cbb7" stroke="#f1cbb7" stroke-width=".3414896"/><path d="M101.934 136.806l2.137 1.892.719 2.157.426 2.855-1.535 1.194-5.071-.768-.341-3.494 1.534-3.24z" fill="#fadbca" stroke="#fadbca" stroke-width=".3414896"/><path d="M98.269 140.642l-2.174-3.41-2.259-.128-1.363 2.77.213 3.367.767.64s3.793.255 3.963.042c.17-.213 1.084-.909 1.084-.909z" fill="#fae0cc" stroke="#fae0cc" stroke-width=".3414896"/><path d="M90.342 137.147l2.13 2.728.214 3.366-.975.336-2.532-2.26-.606.479-2.365-1.538-.288-2.066 1.097-1.642 1.663 2.26z" fill="#f6d0b6" stroke="#f6d0b6" stroke-width=".3414896"/><path d="M117.203 146.241l-.449-1.217-1.868-.392s-2.26 1.416-2.23 1.537c.03.12.467 1.75.467 1.75l2.15-.586z" fill="#c8846e" stroke="#c8846e" stroke-width=".3414896"/><path d="M112.655 146.166l-2.893-.6-1.326 1.416.207 2.2 4.48-1.263z" fill="#af6f55" stroke="#af6f55" stroke-width=".3414896"/><path d="M108.436 146.982l-.813-.904s-3.074-.331-3.164-.21c-.09.12-.543.723-.573.843-.03.12.004 3.943.004 3.943l4.753-1.473-.207-2.199" fill="#e4a086" stroke="#e4a086" stroke-width=".3414896"/><path d="M103.878 146.887l-.921-.96s-2.046.063-2.152.106c-.107.043-1.045.831-1.045.831l.012 4.084 3.133.121.985-.415z" fill="#f6bea9" stroke="#f6bea9" stroke-width=".3414896"/><path d="M99.76 146.864l-.958-1.108-2.366.15-.817 4.888 4.153.154-.012-4.084" fill="#f5c6af" stroke="#f5c6af" stroke-width=".3414896"/><path d="M96.436 145.905l-3.026-.149-1.681 3.488s1.866 1.385 1.998 1.433c.13.048 1.892.117 1.892.117l.817-4.889h0" fill="#f4baa1" stroke="#f4baa1" stroke-width=".3414896"/><path d="M93.41 145.756c-.83-.384-1.555-1.108-1.555-1.108l-2.62 2.17 2.494 2.426z" fill="#f6c6a6" stroke="#f6c6a6" stroke-width=".3414896"/><path d="M91.71 143.577l.145 1.07-2.62 2.171-1.408-1.46.746-3.562.606-.48z" fill="#efb9a3" stroke="#efb9a3" stroke-width=".3414896"/><path d="M92.686 143.241l-.975.336.144 1.07 1.555 1.109 3.026.15-1.08-1.925-1.903-.1z" fill="#b16e4b" stroke="#b16e4b" stroke-width=".3414896"/><path d="M95.356 143.981l2.058-.055 1.086-.912.11 1.122 5.071.768 1.535-1.194 4.134.213 1.449-1.065.623 3.052-1.66-.344-1.325 1.416-.814-.904-3.204-.158-.541.967-.921-.96-2.234.158-.962.78-.96-1.109-2.365.15z" fill="#632010" stroke="#632010" stroke-width=".3414896"/><path d="M110.799 142.858l.623 3.052 1.233.256 2.23-1.534 1.87.392.448 1.217 3.747-2.12.068-2.535-1.994-.22-.852 1.407-2.642-1.023-1.705 1.79-1.748-.213z" fill="#431612" stroke="#431612" stroke-width=".3414896"/><path d="M83.011 116.264l-6.094 12.402 4.93 5.965-.02-3.048 3.246-12.588z" fill="#dc8f6f" stroke="#dc8f6f" stroke-width=".3414896"/><path d="M89.191 106.376l-10.697 4.646-8.396 20.116 6.819-2.472 6.094-12.402 1.62-3.921z" fill="#c26047" stroke="#c26047" stroke-width=".3414896"/><path d="M81.86 136.849l-3.835 12.274 12.445 14.064 17.57 1.018-18.228-5.048 2.592-2.049-4.662-2.615-4.515-8.394-1.366-9.25" fill="#f4ae87" stroke="#f4ae87" stroke-width=".3414896"/><path d="M78.494 111.022l-9.59-.043-6.563-2.472-3.58-2.387-.34 7.203 6.307 23.526 5.37-5.711z" fill="#f7b090" stroke="#f7b090" stroke-width=".3414896"/><path d="M76.917 128.666l4.93 5.965.014 2.218-3.836 12.274 8.438 24.378-17.388-26.424-4.347-10.228 5.37-5.711z" fill="#d7855f" stroke="#d7855f" stroke-width=".3414896"/><path d="M58.761 106.12l-.859 15.052-1.869-13.56-.606-5.924z" fill="#4c2e1d" stroke="#4c2e1d" stroke-width=".3414896"/></g></svg>